<svg width="68" height="78" viewBox="0 0 68 78" fill="none" xmlns="http://www.w3.org/2000/svg">
<circle cx="34" cy="41" r="34" fill="white"/>
<g filter="url(#filter0_d_790_14)">
<path d="M20.2898 41.0653V38.3352C22.741 38.3352 24.451 37.8215 25.4197 36.794C26.4032 35.7666 26.8949 34.0492 26.8949 31.642V24.5966C26.8949 22.571 27.0857 20.817 27.4673 19.3345C27.8636 17.852 28.5021 16.6264 29.3828 15.6577C30.2635 14.6889 31.4377 13.9697 32.9055 13.5C34.3733 13.0303 36.1861 12.7955 38.3438 12.7955V17.1108C36.6411 17.1108 35.2981 17.375 34.3146 17.9034C33.3459 18.4318 32.656 19.2538 32.245 20.3693C31.8487 21.4702 31.6506 22.8793 31.6506 24.5966V33.4034C31.6506 34.5483 31.4964 35.5904 31.1882 36.5298C30.8946 37.4692 30.3442 38.2765 29.5369 38.9517C28.7296 39.6269 27.5774 40.148 26.0803 40.5149C24.5978 40.8819 22.6676 41.0653 20.2898 41.0653ZM38.3438 69.1591C36.1861 69.1591 34.3733 68.9242 32.9055 68.4545C31.4377 67.9848 30.2635 67.2656 29.3828 66.2969C28.5021 65.3281 27.8636 64.1025 27.4673 62.62C27.0857 61.1375 26.8949 59.3835 26.8949 57.358V50.3125C26.8949 47.9053 26.4032 46.188 25.4197 45.1605C24.451 44.133 22.741 43.6193 20.2898 43.6193V40.8892C22.6676 40.8892 24.5978 41.0727 26.0803 41.4396C27.5774 41.8066 28.7296 42.3277 29.5369 43.0028C30.3442 43.678 30.8946 44.4853 31.1882 45.4247C31.4964 46.3641 31.6506 47.4062 31.6506 48.5511V57.358C31.6506 59.0753 31.8487 60.4844 32.245 61.5852C32.656 62.6861 33.3459 63.5007 34.3146 64.0291C35.2981 64.5722 36.6411 64.8438 38.3438 64.8438V69.1591ZM20.2898 43.6193V38.3352H25.4858V43.6193H20.2898Z" fill="black"/>
<path d="M20.2898 41.0653H18.2898V43.0653H20.2898V41.0653ZM20.2898 38.3352V36.3352H18.2898V38.3352H20.2898ZM25.4197 36.794L23.9749 35.4111L23.9697 35.4165L23.9646 35.422L25.4197 36.794ZM27.4673 19.3345L25.5352 18.818L25.5328 18.8269L25.5305 18.8359L27.4673 19.3345ZM29.3828 15.6577L27.9029 14.3123L27.9029 14.3123L29.3828 15.6577ZM32.9055 13.5L33.5151 15.4048L33.5151 15.4048L32.9055 13.5ZM38.3438 12.7955H40.3438V10.7955H38.3438V12.7955ZM38.3438 17.1108V19.1108H40.3438V17.1108H38.3438ZM34.3146 17.9034L33.368 16.1416L33.3569 16.1476L34.3146 17.9034ZM32.245 20.3693L30.3683 19.6779L30.3658 19.6849L30.3633 19.6919L32.245 20.3693ZM31.1882 36.5298L29.2879 35.9063L29.2835 35.9198L29.2793 35.9333L31.1882 36.5298ZM29.5369 38.9517L28.2538 37.4175L28.2538 37.4176L29.5369 38.9517ZM26.0803 40.5149L25.6042 38.5724L25.5997 38.5735L26.0803 40.5149ZM38.3438 69.1591V71.1591H40.3438V69.1591H38.3438ZM32.9055 68.4545L32.296 70.3594L32.296 70.3594L32.9055 68.4545ZM29.3828 66.2969L27.9029 67.6422L27.9029 67.6422L29.3828 66.2969ZM27.4673 62.62L25.5305 63.1186L25.5328 63.1276L25.5352 63.1365L27.4673 62.62ZM25.4197 45.1605L23.9646 46.5325L23.9697 46.538L23.9749 46.5434L25.4197 45.1605ZM20.2898 43.6193H18.2898V45.6193H20.2898V43.6193ZM20.2898 40.8892V38.8892H18.2898V40.8892H20.2898ZM26.0803 41.4396L25.5997 43.381L25.6042 43.3821L26.0803 41.4396ZM29.5369 43.0028L30.82 41.4687L30.82 41.4687L29.5369 43.0028ZM31.1882 45.4247L29.2793 46.0213L29.2835 46.0348L29.2879 46.0483L31.1882 45.4247ZM32.245 61.5852L30.3633 62.2627L30.3672 62.2737L30.3713 62.2847L32.245 61.5852ZM34.3146 64.0291L35.2815 62.2783L35.2723 62.2733L34.3146 64.0291ZM38.3438 64.8438H40.3438V62.8438H38.3438V64.8438ZM20.2898 43.6193H18.2898V45.6193H20.2898V43.6193ZM20.2898 38.3352V36.3352H18.2898V38.3352H20.2898ZM25.4858 38.3352H27.4858V36.3352H25.4858V38.3352ZM25.4858 43.6193V45.6193H27.4858V43.6193H25.4858ZM22.2898 41.0653V38.3352H18.2898V41.0653H22.2898ZM20.2898 40.3352C22.9121 40.3352 25.3294 39.8053 26.8749 38.1661L23.9646 35.422C23.5726 35.8377 22.5699 36.3352 20.2898 36.3352V40.3352ZM26.8646 38.1769C28.3822 36.5914 28.8949 34.2315 28.8949 31.642H24.8949C24.8949 33.8669 24.4242 34.9418 23.9749 35.4111L26.8646 38.1769ZM28.8949 31.642V24.5966H24.8949V31.642H28.8949ZM28.8949 24.5966C28.8949 22.6886 29.0755 21.11 29.4042 19.8331L25.5305 18.8359C25.0959 20.5239 24.8949 22.4535 24.8949 24.5966H28.8949ZM29.3995 19.851C29.7275 18.6239 30.2309 17.698 30.8627 17.003L27.9029 14.3123C26.7734 15.5548 25.9998 17.0801 25.5352 18.818L29.3995 19.851ZM30.8627 17.003C31.4686 16.3366 32.3219 15.7867 33.5151 15.4048L32.296 11.5952C30.5536 12.1527 29.0584 13.0413 27.9029 14.3123L30.8627 17.003ZM33.5151 15.4048C34.7246 15.0178 36.3169 14.7955 38.3438 14.7955V10.7955C36.0553 10.7955 34.0221 11.0428 32.296 11.5952L33.5151 15.4048ZM36.3438 12.7955V17.1108H40.3438V12.7955H36.3438ZM38.3438 15.1108C36.4694 15.1108 34.7559 15.3959 33.368 16.1416L35.2613 19.6652C35.8402 19.3541 36.8128 19.1108 38.3438 19.1108V15.1108ZM33.3569 16.1476C31.9288 16.9266 30.9327 18.1461 30.3683 19.6779L34.1217 21.0607C34.3793 20.3615 34.763 19.937 35.2723 19.6592L33.3569 16.1476ZM30.3633 19.6919C29.8613 21.0863 29.6506 22.7463 29.6506 24.5966H33.6506C33.6506 23.0122 33.8362 21.8541 34.1268 21.0468L30.3633 19.6919ZM29.6506 24.5966V33.4034H33.6506V24.5966H29.6506ZM29.6506 33.4034C29.6506 34.3692 29.5206 35.1971 29.2879 35.9063L33.0885 37.1534C33.4723 35.9838 33.6506 34.7273 33.6506 33.4034H29.6506ZM29.2793 35.9333C29.1081 36.4809 28.7882 36.9706 28.2538 37.4175L30.82 40.4859C31.9002 39.5824 32.6812 38.4575 33.0972 37.1264L29.2793 35.9333ZM28.2538 37.4176C27.764 37.8272 26.9319 38.247 25.6042 38.5724L26.5564 42.4574C28.223 42.0489 29.6953 41.4266 30.82 40.4859L28.2538 37.4176ZM25.5997 38.5735C24.3361 38.8863 22.5847 39.0653 20.2898 39.0653V43.0653C22.7505 43.0653 24.8594 42.8775 26.5608 42.4563L25.5997 38.5735ZM38.3438 67.1591C36.3169 67.1591 34.7246 66.9367 33.5151 66.5497L32.296 70.3594C34.0221 70.9118 36.0553 71.1591 38.3438 71.1591V67.1591ZM33.5151 66.5497C32.3219 66.1679 31.4686 65.618 30.8627 64.9515L27.9029 67.6422C29.0584 68.9133 30.5536 69.8018 32.296 70.3594L33.5151 66.5497ZM30.8627 64.9515C30.2309 64.2565 29.7275 63.3306 29.3995 62.1035L25.5352 63.1365C25.9998 64.8744 26.7734 66.3997 27.9029 67.6422L30.8627 64.9515ZM29.4042 62.1214C29.0755 60.8445 28.8949 59.266 28.8949 57.358H24.8949C24.8949 59.5011 25.0959 61.4306 25.5305 63.1186L29.4042 62.1214ZM28.8949 57.358V50.3125H24.8949V57.358H28.8949ZM28.8949 50.3125C28.8949 47.723 28.3822 45.3632 26.8646 43.7776L23.9749 46.5434C24.4242 47.0128 24.8949 48.0876 24.8949 50.3125H28.8949ZM26.8749 43.7885C25.3294 42.1493 22.9121 41.6193 20.2898 41.6193V45.6193C22.5699 45.6193 23.5726 46.1168 23.9646 46.5325L26.8749 43.7885ZM22.2898 43.6193V40.8892H18.2898V43.6193H22.2898ZM20.2898 42.8892C22.5847 42.8892 24.3361 43.0683 25.5997 43.381L26.5608 39.4982C24.8594 39.0771 22.7505 38.8892 20.2898 38.8892V42.8892ZM25.6042 43.3821C26.9319 43.7076 27.764 44.1273 28.2538 44.537L30.82 41.4687C29.6953 40.528 28.223 39.9056 26.5564 39.4971L25.6042 43.3821ZM28.2538 44.537C28.7882 44.984 29.1081 45.4736 29.2793 46.0213L33.0972 44.8282C32.6812 43.497 31.9002 42.3721 30.82 41.4687L28.2538 44.537ZM29.2879 46.0483C29.5206 46.7575 29.6506 47.5853 29.6506 48.5511H33.6506C33.6506 47.2272 33.4723 45.9708 33.0885 44.8012L29.2879 46.0483ZM29.6506 48.5511V57.358H33.6506V48.5511H29.6506ZM29.6506 57.358C29.6506 59.2082 29.8613 60.8683 30.3633 62.2627L34.1268 60.9078C33.8362 60.1005 33.6506 58.9423 33.6506 57.358H29.6506ZM30.3713 62.2847C30.9388 63.8047 31.9369 65.0103 33.3569 65.7849L35.2723 62.2733C34.7549 61.9911 34.3732 61.5675 34.1187 60.8857L30.3713 62.2847ZM33.3478 65.7799C34.7414 66.5495 36.4631 66.8438 38.3438 66.8438V62.8438C36.8191 62.8438 35.8547 62.5949 35.2815 62.2783L33.3478 65.7799ZM36.3438 64.8438V69.1591H40.3438V64.8438H36.3438ZM22.2898 43.6193V38.3352H18.2898V43.6193H22.2898ZM20.2898 40.3352H25.4858V36.3352H20.2898V40.3352ZM23.4858 38.3352V43.6193H27.4858V38.3352H23.4858ZM25.4858 41.6193H20.2898V45.6193H25.4858V41.6193Z" fill="black"/>
</g>
<defs>
<filter id="filter0_d_790_14" x="16.2898" y="12.7954" width="26.054" height="64.3636" filterUnits="userSpaceOnUse" color-interpolation-filters="sRGB">
<feFlood flood-opacity="0" result="BackgroundImageFix"/>
<feColorMatrix in="SourceAlpha" type="matrix" values="0 0 0 0 0 0 0 0 0 0 0 0 0 0 0 0 0 0 127 0" result="hardAlpha"/>
<feOffset dy="4"/>
<feGaussianBlur stdDeviation="2"/>
<feComposite in2="hardAlpha" operator="out"/>
<feColorMatrix type="matrix" values="0 0 0 0 0 0 0 0 0 0 0 0 0 0 0 0 0 0 0.25 0"/>
<feBlend mode="normal" in2="BackgroundImageFix" result="effect1_dropShadow_790_14"/>
<feBlend mode="normal" in="SourceGraphic" in2="effect1_dropShadow_790_14" result="shape"/>
</filter>
</defs>
</svg>
