<svg width="68" height="79" viewBox="0 0 68 79" fill="none" xmlns="http://www.w3.org/2000/svg">
<circle cx="34" cy="34" r="34" fill="white"/>
<g filter="url(#filter0_d_790_14)">
<path d="M22.7727 35.3409V33.2273C24.6705 33.2273 25.9943 32.8295 26.7443 32.0341C27.5057 31.2386 27.8864 29.9091 27.8864 28.0455V22.5909C27.8864 21.0227 28.0341 19.6648 28.3295 18.517C28.6364 17.3693 29.1307 16.4205 29.8125 15.6705C30.4943 14.9205 31.4034 14.3636 32.5398 14C33.6761 13.6364 35.0795 13.4545 36.75 13.4545V16.7955C35.4318 16.7955 34.392 17 33.6307 17.4091C32.8807 17.8182 32.3466 18.4545 32.0284 19.3182C31.7216 20.1705 31.5682 21.2614 31.5682 22.5909V29.4091C31.5682 30.2955 31.4489 31.1023 31.2102 31.8295C30.983 32.5568 30.5568 33.1818 29.9318 33.7045C29.3068 34.2273 28.4148 34.6307 27.2557 34.9148C26.108 35.1989 24.6136 35.3409 22.7727 35.3409ZM36.75 57.0909C35.0795 57.0909 33.6761 56.9091 32.5398 56.5455C31.4034 56.1818 30.4943 55.625 29.8125 54.875C29.1307 54.125 28.6364 53.1761 28.3295 52.0284C28.0341 50.8807 27.8864 49.5227 27.8864 47.9545V42.5C27.8864 40.6364 27.5057 39.3068 26.7443 38.5114C25.9943 37.7159 24.6705 37.3182 22.7727 37.3182V35.2045C24.6136 35.2045 26.108 35.3466 27.2557 35.6307C28.4148 35.9148 29.3068 36.3182 29.9318 36.8409C30.5568 37.3636 30.983 37.9886 31.2102 38.7159C31.4489 39.4432 31.5682 40.25 31.5682 41.1364V47.9545C31.5682 49.2841 31.7216 50.375 32.0284 51.2273C32.3466 52.0795 32.8807 52.7102 33.6307 53.1193C34.392 53.5398 35.4318 53.75 36.75 53.75V57.0909ZM22.7727 37.3182V33.2273H26.7955V37.3182H22.7727Z" fill="black"/>
<path d="M22.7727 35.3409H20.7727V37.3409H22.7727V35.3409ZM22.7727 33.2273V31.2273H20.7727V33.2273H22.7727ZM26.7443 32.0341L25.2995 30.6512L25.2943 30.6566L25.2891 30.6621L26.7443 32.0341ZM28.3295 18.517L26.3974 18.0005L26.395 18.0095L26.3927 18.0184L28.3295 18.517ZM29.8125 15.6705L28.3326 14.3251L28.3326 14.3251L29.8125 15.6705ZM32.5398 14L33.1493 15.9048L33.1493 15.9048L32.5398 14ZM36.75 13.4545H38.75V11.4545H36.75V13.4545ZM36.75 16.7955V18.7955H38.75V16.7955H36.75ZM33.6307 17.4091L32.684 15.6473L32.673 15.6533L33.6307 17.4091ZM32.0284 19.3182L30.1517 18.6268L30.1492 18.6337L30.1466 18.6407L32.0284 19.3182ZM31.2102 31.8295L29.3099 31.206L29.3055 31.2195L29.3013 31.233L31.2102 31.8295ZM29.9318 33.7045L28.6487 32.1704L28.6487 32.1704L29.9318 33.7045ZM27.2557 34.9148L26.7796 32.9723L26.7751 32.9734L27.2557 34.9148ZM36.75 57.0909V59.0909H38.75V57.0909H36.75ZM32.5398 56.5455L31.9302 58.4503L31.9302 58.4503L32.5398 56.5455ZM29.8125 54.875L28.3326 56.2203L28.3326 56.2203L29.8125 54.875ZM28.3295 52.0284L26.3927 52.527L26.395 52.536L26.3974 52.5449L28.3295 52.0284ZM26.7443 38.5114L25.2891 39.8834L25.2943 39.8889L25.2995 39.8943L26.7443 38.5114ZM22.7727 37.3182H20.7727V39.3182H22.7727V37.3182ZM22.7727 35.2045V33.2045H20.7727V35.2045H22.7727ZM27.2557 35.6307L26.7751 37.5721L26.7796 37.5732L27.2557 35.6307ZM29.9318 36.8409L31.2149 35.3068L31.2149 35.3068L29.9318 36.8409ZM31.2102 38.7159L29.3013 39.3125L29.3055 39.326L29.3099 39.3395L31.2102 38.7159ZM32.0284 51.2273L30.1466 51.9047L30.1506 51.9158L30.1547 51.9268L32.0284 51.2273ZM33.6307 53.1193L34.5975 51.3685L34.5884 51.3635L33.6307 53.1193ZM36.75 53.75H38.75V51.75H36.75V53.75ZM22.7727 37.3182H20.7727V39.3182H22.7727V37.3182ZM22.7727 33.2273V31.2273H20.7727V33.2273H22.7727ZM26.7955 33.2273H28.7955V31.2273H26.7955V33.2273ZM26.7955 37.3182V39.3182H28.7955V37.3182H26.7955ZM24.7727 35.3409V33.2273H20.7727V35.3409H24.7727ZM22.7727 35.2273C24.8416 35.2273 26.8727 34.8133 28.1995 33.4061L25.2891 30.6621C25.116 30.8457 24.4993 31.2273 22.7727 31.2273V35.2273ZM28.1892 33.417C29.4847 32.0634 29.8864 30.0914 29.8864 28.0455H25.8864C25.8864 29.7268 25.5267 30.4138 25.2995 30.6512L28.1892 33.417ZM29.8864 28.0455V22.5909H25.8864V28.0455H29.8864ZM29.8864 22.5909C29.8864 21.1403 30.0239 19.9578 30.2664 19.0156L26.3927 18.0184C26.0443 19.3717 25.8864 20.9052 25.8864 22.5909H29.8864ZM30.2617 19.0336C30.5002 18.1412 30.8594 17.4921 31.2924 17.0158L28.3326 14.3251C27.4019 15.3489 26.7725 16.5974 26.3974 18.0005L30.2617 19.0336ZM31.2924 17.0158C31.6994 16.5681 32.2875 16.1806 33.1493 15.9048L31.9302 12.0952C30.5193 12.5466 29.2893 13.2728 28.3326 14.3251L31.2924 17.0158ZM33.1493 15.9048C34.0274 15.6239 35.2104 15.4545 36.75 15.4545V11.4545C34.9487 11.4545 33.3249 11.6488 31.9302 12.0952L33.1493 15.9048ZM34.75 13.4545V16.7955H38.75V13.4545H34.75ZM36.75 14.7955C35.2601 14.7955 33.8499 15.0209 32.6841 15.6473L34.5773 19.1709C34.9342 18.9791 35.6036 18.7955 36.75 18.7955V14.7955ZM32.673 15.6533C31.4636 16.313 30.6233 17.3469 30.1517 18.6268L33.9051 20.0096C34.0699 19.5622 34.2978 19.3234 34.5884 19.1649L32.673 15.6533ZM30.1466 18.6407C29.7341 19.7865 29.5682 21.1284 29.5682 22.5909H33.5682C33.5682 21.3943 33.709 20.5544 33.9102 19.9956L30.1466 18.6407ZM29.5682 22.5909V29.4091H33.5682V22.5909H29.5682ZM29.5682 29.4091C29.5682 30.1164 29.473 30.7089 29.3099 31.206L33.1105 32.4531C33.4247 31.4956 33.5682 30.4745 33.5682 29.4091H29.5682ZM29.3013 31.233C29.1964 31.5685 29.0008 31.8759 28.6487 32.1704L31.2149 35.2387C32.1128 34.4878 32.7695 33.5451 33.1192 32.4261L29.3013 31.233ZM28.6487 32.1704C28.3412 32.4276 27.7692 32.7297 26.7796 32.9723L27.7318 36.8573C29.0603 36.5317 30.2725 36.0269 31.2149 35.2387L28.6487 32.1704ZM26.7751 32.9734C25.8463 33.2033 24.5308 33.3409 22.7727 33.3409V37.3409C24.6965 37.3409 26.3696 37.1945 27.7362 36.8562L26.7751 32.9734ZM36.75 55.0909C35.2104 55.0909 34.0274 54.9216 33.1493 54.6406L31.9302 58.4503C33.3249 58.8966 34.9487 59.0909 36.75 59.0909V55.0909ZM33.1493 54.6406C32.2875 54.3648 31.6994 53.9774 31.2924 53.5297L28.3326 56.2203C29.2893 57.2726 30.5193 57.9988 31.9302 58.4503L33.1493 54.6406ZM31.2924 53.5297C30.8594 53.0534 30.5002 52.4042 30.2617 51.5119L26.3974 52.5449C26.7725 53.948 27.4019 55.1966 28.3326 56.2203L31.2924 53.5297ZM30.2664 51.5298C30.0239 50.5876 29.8864 49.4052 29.8864 47.9545H25.8864C25.8864 49.6403 26.0443 51.1737 26.3927 52.527L30.2664 51.5298ZM29.8864 47.9545V42.5H25.8864V47.9545H29.8864ZM29.8864 42.5C29.8864 40.4541 29.4847 38.482 28.1892 37.1284L25.2995 39.8943C25.5267 40.1316 25.8864 40.8187 25.8864 42.5H29.8864ZM28.1995 37.1393C26.8727 35.7321 24.8416 35.3182 22.7727 35.3182V39.3182C24.4993 39.3182 25.1159 39.6997 25.2891 39.8834L28.1995 37.1393ZM24.7727 37.3182V35.2045H20.7727V37.3182H24.7727ZM22.7727 37.2045C24.5308 37.2045 25.8463 37.3422 26.7751 37.5721L27.7362 33.6893C26.3696 33.351 24.6965 33.2045 22.7727 33.2045V37.2045ZM26.7796 37.5732C27.7692 37.8157 28.3412 38.1178 28.6487 38.3751L31.2149 35.3068C30.2725 34.5185 29.0603 34.0138 27.7318 33.6882L26.7796 37.5732ZM28.6487 38.3751C29.0008 38.6696 29.1964 38.9769 29.3013 39.3125L33.1192 38.1194C32.7695 37.0003 32.1128 36.0577 31.2149 35.3068L28.6487 38.3751ZM29.3099 39.3395C29.473 39.8365 29.5682 40.429 29.5682 41.1364H33.5682C33.5682 40.071 33.4247 39.0498 33.1105 38.0924L29.3099 39.3395ZM29.5682 41.1364V47.9545H33.5682V41.1364H29.5682ZM29.5682 47.9545C29.5682 49.4171 29.7341 50.7589 30.1466 51.9047L33.9102 50.5498C33.709 49.9911 33.5682 49.1511 33.5682 47.9545H29.5682ZM30.1547 51.9268C30.6294 53.1981 31.4717 54.2199 32.673 54.8751L34.5884 51.3635C34.2897 51.2006 34.0638 50.9609 33.9021 50.5278L30.1547 51.9268ZM32.6638 54.8701C33.8354 55.5171 35.2538 55.75 36.75 55.75V51.75C35.6098 51.75 34.9487 51.5625 34.5975 51.3685L32.6638 54.8701ZM34.75 53.75V57.0909H38.75V53.75H34.75ZM24.7727 37.3182V33.2273H20.7727V37.3182H24.7727ZM22.7727 35.2273H26.7955V31.2273H22.7727V35.2273ZM24.7955 33.2273V37.3182H28.7955V33.2273H24.7955ZM26.7955 35.3182H22.7727V39.3182H26.7955V35.3182Z" fill="black"/>
</g>
<defs>
<filter id="filter0_d_790_14" x="18.7727" y="13.4545" width="21.9773" height="51.6364" filterUnits="userSpaceOnUse" color-interpolation-filters="sRGB">
<feFlood flood-opacity="0" result="BackgroundImageFix"/>
<feColorMatrix in="SourceAlpha" type="matrix" values="0 0 0 0 0 0 0 0 0 0 0 0 0 0 0 0 0 0 127 0" result="hardAlpha"/>
<feOffset dy="4"/>
<feGaussianBlur stdDeviation="2"/>
<feComposite in2="hardAlpha" operator="out"/>
<feColorMatrix type="matrix" values="0 0 0 0 0 0 0 0 0 0 0 0 0 0 0 0 0 0 0.25 0"/>
<feBlend mode="normal" in2="BackgroundImageFix" result="effect1_dropShadow_790_14"/>
<feBlend mode="normal" in="SourceGraphic" in2="effect1_dropShadow_790_14" result="shape"/>
</filter>
</defs>
</svg>
